<?xml version="1.0" encoding="utf-8"?>
<!-- Generator: Adobe Illustrator 23.1.1, SVG Export Plug-In . SVG Version: 6.00 Build 0)  -->
<svg version="1.1" id="Layer_1" xmlns="http://www.w3.org/2000/svg" xmlns:xlink="http://www.w3.org/1999/xlink" x="0px" y="0px"
	 viewBox="0 0 1920 1800" style="enable-background:new 0 0 1920 1800;" xml:space="preserve">
<style type="text/css">
	.st0{fill:#FFC849;}
	.st1{fill:#C1976B;}
	.st2{fill:#FBED1D;}
	.st3{fill:#F58420;}
	.st4{fill:#00A799;}
	.st5{fill:#A01C45;}
	.st6{fill:#00A44F;}
	.st7{fill:#8AC440;}
	.st8{fill:#F59120;}
	.st9{fill:#E80A89;}
	.st10{fill:#A3CC39;}
	.st11{fill:#652F8E;}
	.st12{fill:#D81B5D;}
	.st13{fill:#D5DD26;}
	.st14{fill:#E8A269;}
	.st15{fill:#EF7FAE;}
	.st16{fill:#BBBB32;}
	.st17{fill:#525DA3;}
</style>
<g>
	<g>
		<g>
			<g>
				<path class="st0" d="M909.99,589.01c20.97,26.95,38.24,57,51.26,89.52l-67.7,25.86c-10.25-25.31-23.72-48.74-39.99-69.83
					L909.99,589.01z"/>
				<path class="st1" d="M903.43,898.41l70,18.88c-4.76,16.43-10.68,32.65-17.79,48.55c-7.11,15.89-15.26,31.11-24.33,45.61
					l-60.74-39.59c7.03-11.34,13.37-23.22,18.91-35.62C895.03,923.86,899.66,911.22,903.43,898.41z"/>
				<path class="st2" d="M493.96,469.52c32.92-11.97,66.84-19.13,100.91-21.46l3.67,72.42c-26.57,1.93-53.02,7.51-78.72,16.74
					L493.96,469.52z"/>
				<path class="st3" d="M335.74,732.66l-70-18.88c4.76-16.43,10.68-32.65,17.78-48.54c7.11-15.89,15.26-31.11,24.33-45.62
					l60.74,39.59c-7.03,11.35-13.37,23.23-18.91,35.62C344.14,707.22,339.51,719.86,335.74,732.66z"/>
				<path class="st4" d="M846.12,1105.94c-26.95,20.97-57,38.24-89.52,51.27l-25.86-67.7c25.31-10.25,48.74-23.72,69.84-40
					L846.12,1105.94z"/>
				<path class="st5" d="M329.18,1042.07c-20.97-26.95-38.24-57-51.27-89.53l67.7-25.86c10.25,25.31,23.72,48.75,40,69.84
					L329.18,1042.07z"/>
				<path class="st6" d="M837.23,810.6l65.85-3.34c0.77,25.59-1.97,51.2-8.21,76.24l-63.68-17.18
					C835.57,848.23,837.64,829.51,837.23,810.6z"/>
				<path class="st0" d="M844.08,642.21c15.48,20.11,28.32,42.42,38.1,66.53l-61.47,23.48c-7.34-17.72-16.79-33.98-27.94-48.6
					L844.08,642.21z"/>
				<path class="st1" d="M828.01,878.07l63.66,17.17c-3.6,12.2-8.02,24.24-13.3,36.04c-5.28,11.8-11.31,23.12-18,33.94l-55.24-36.01
					C814.91,913.22,822.6,896.02,828.01,878.07z"/>
				<path class="st2" d="M547.64,610.07l-23.48-61.47c24.49-8.77,49.68-14.08,74.99-15.94l3.34,65.84
					C584.16,599.94,565.74,603.73,547.64,610.07z"/>
				<path class="st7" d="M743.48,636.63l36.01-55.25c21.34,14.51,40.46,31.77,56.94,51.36l-51.31,41.41
					C772.82,659.77,758.79,647.2,743.48,636.63z"/>
				<path class="st8" d="M611.31,532.04c25.59-0.77,51.2,1.97,76.24,8.21l-17.18,63.68c-18.09-4.37-36.81-6.45-55.72-6.04
					L611.31,532.04z"/>
				<path class="st4" d="M792.92,1040.02c-20.11,15.49-42.43,28.32-66.53,38.11l-23.48-61.47c17.72-7.34,33.98-16.79,48.6-27.94
					L792.92,1040.02z"/>
				<path class="st3" d="M411.16,753.01l-63.66-17.17c3.6-12.2,8.02-24.23,13.3-36.04c5.28-11.81,11.31-23.13,18-33.94l55.24,36.01
					C424.26,717.85,416.57,735.06,411.16,753.01z"/>
				<path class="st9" d="M385.42,655.63c14.51-21.34,31.77-40.46,51.36-56.94l41.41,51.31c-14.37,12.3-26.94,26.33-37.51,41.64
					L385.42,655.63z"/>
				<path class="st10" d="M352.65,910.97c-8.77-24.49-14.08-49.68-15.94-75l65.84-3.34c1.44,18.33,5.23,36.75,11.57,54.86
					L352.65,910.97z"/>
				<path class="st5" d="M446.41,947.48l-51.31,41.4c-15.49-20.11-28.32-42.43-38.11-66.53l61.47-23.48
					C425.8,916.59,435.25,932.85,446.41,947.48z"/>
				<path class="st1" d="M761.03,860l55.23,14.9c-5.07,16.72-12.23,32.75-21.32,47.67l-47.92-31.24
					C752.87,881.46,757.58,870.94,761.03,860z"/>
				<path class="st6" d="M767.91,814.11l57.16-2.9c0.35,17.62-1.58,35.07-5.62,51.94l-55.23-14.9
					C766.75,837.13,768.01,825.68,767.91,814.11z"/>
				<path class="st11" d="M760.2,768.35l53.47-20.42c5.89,16.87,9.42,34.04,10.79,51.12l-57.15,2.9
					C766.28,790.72,763.94,779.45,760.2,768.35z"/>
				<path class="st4" d="M707.93,934.71l35.94,44.53c-13.65,10.37-28.8,19.17-45.3,26.04l-20.42-53.47
					C688.92,947.19,698.88,941.43,707.93,934.71z"/>
				<path class="st12" d="M740.38,901.54l47.92,31.24c-9.88,14.26-21.59,27.33-34.96,38.81l-35.94-44.54
					C726.09,919.41,733.78,910.84,740.38,901.54z"/>
				<path class="st0" d="M738.76,727.2l44.54-35.94c10.37,13.65,19.17,28.8,26.03,45.3l-53.47,20.42
					C751.24,746.21,745.48,736.26,738.76,727.2z"/>
				<path class="st13" d="M664.05,674.1l14.9-55.23c16.72,5.07,32.75,12.24,47.67,21.32l-31.24,47.92
					C685.52,682.25,675,677.55,664.05,674.1z"/>
				<path class="st8" d="M618.16,667.21l-2.9-57.16c17.62-0.35,35.07,1.58,51.94,5.63l-14.9,55.23
					C641.19,668.38,629.73,667.11,618.16,667.21z"/>
				<path class="st7" d="M705.59,694.75l31.24-47.92c14.26,9.88,27.33,21.59,38.81,34.97l-44.54,35.94
					C723.47,709.04,714.89,701.35,705.59,694.75z"/>
				<path class="st14" d="M531.24,696.37l-35.94-44.54c13.65-10.37,28.8-19.17,45.3-26.04l20.42,53.47
					C550.26,683.88,540.3,689.65,531.24,696.37z"/>
				<path class="st15" d="M471.26,816.96l-57.16,2.9c-0.35-17.62,1.58-35.07,5.62-51.94l55.23,14.9
					C472.43,793.94,471.16,805.4,471.26,816.96z"/>
				<path class="st2" d="M572.4,674.92l-20.42-53.47c16.87-5.89,34.04-9.42,51.13-10.79l2.9,57.15
					C594.77,668.85,583.51,671.19,572.4,674.92z"/>
				<path class="st9" d="M498.79,729.53l-47.92-31.24c9.88-14.26,21.59-27.33,34.97-38.81l35.94,44.54
					C513.08,711.66,505.39,720.24,498.79,729.53z"/>
				<path class="st3" d="M478.14,771.08l-55.23-14.9c5.07-16.72,12.24-32.75,21.32-47.67l47.92,31.24
					C486.3,749.61,481.59,760.13,478.14,771.08z"/>
				<path class="st10" d="M478.97,862.73l-53.47,20.42c-5.89-16.87-9.43-34.04-10.79-51.13l57.15-2.9
					C472.89,840.36,475.24,851.62,478.97,862.73z"/>
				<path class="st5" d="M500.42,903.89l-44.54,35.94c-10.37-13.65-19.18-28.8-26.04-45.31l53.47-20.42
					C487.93,884.87,493.7,894.83,500.42,903.89z"/>
				<path class="st12" d="M687.02,866.76l43.16,28.13c-5.9,8.24-12.73,15.87-20.43,22.68l-32.37-40.11
					C680.91,874.15,684.13,870.57,687.02,866.76z"/>
				<path class="st4" d="M667.91,885.11l32.37,40.11c-8.08,5.95-16.93,11.07-26.47,15.21l-18.39-48.15
					C659.84,890.22,664.01,887.82,667.91,885.11z"/>
				<path class="st6" d="M704.27,817.34l51.47-2.61c0.05,10.28-1.07,20.46-3.29,30.35l-49.74-13.42
					C703.63,826.96,704.16,822.17,704.27,817.34z"/>
				<path class="st13" d="M647.46,735.6l13.42-49.74c9.72,3.1,19.06,7.29,27.85,12.46l-28.13,43.16
					C656.39,739.15,652,737.18,647.46,735.6z"/>
				<path class="st7" d="M670.81,748.11l28.13-43.16c8.24,5.9,15.86,12.73,22.68,20.43l-40.11,32.37
					C678.2,754.22,674.62,751,670.81,748.11z"/>
				<path class="st11" d="M700.67,791.09l48.15-18.39c3.28,9.87,5.36,19.89,6.31,29.87l-51.47,2.61
					C703.08,800.47,702.08,795.76,700.67,791.09z"/>
				<path class="st0" d="M689.16,767.22l40.11-32.37c5.95,8.08,11.07,16.92,15.21,26.47l-48.15,18.39
					C694.27,775.29,691.87,771.12,689.16,767.22z"/>
				<path class="st1" d="M699.53,843.41l49.74,13.42c-3.1,9.72-7.28,19.06-12.46,27.85l-43.16-28.13
					C695.98,852.34,697.95,847.95,699.53,843.41z"/>
				<path class="st9" d="M552.16,764.32L509,736.19c5.9-8.24,12.73-15.87,20.43-22.68l32.37,40.11
					C558.27,756.92,555.04,760.5,552.16,764.32z"/>
				<path class="st2" d="M595.14,734.45l-18.39-48.15c9.88-3.28,19.89-5.36,29.87-6.31l2.61,51.47
					C604.52,732.04,599.81,733.04,595.14,734.45z"/>
				<path class="st14" d="M571.27,745.96l-32.37-40.11c8.08-5.95,16.93-11.07,26.48-15.21l18.39,48.15
					C579.34,740.86,575.16,743.26,571.27,745.96z"/>
				<path class="st8" d="M621.39,730.86l-2.61-51.48c10.28-0.05,20.46,1.07,30.35,3.29l-13.42,49.74
					C631.02,731.49,626.23,730.97,621.39,730.86z"/>
				<path class="st5" d="M550.01,863.87l-40.11,32.36c-5.95-8.08-11.07-16.93-15.21-26.48l48.15-18.39
					C544.9,855.79,547.3,859.97,550.01,863.87z"/>
				<path class="st10" d="M538.5,839.99l-48.15,18.39c-3.28-9.88-5.36-19.89-6.31-29.88l51.47-2.61
					C536.09,830.61,537.08,835.32,538.5,839.99z"/>
				<path class="st3" d="M539.64,787.67l-49.74-13.42c3.1-9.72,7.29-19.06,12.46-27.86l43.16,28.13
					C543.19,778.73,541.23,783.13,539.64,787.67z"/>
				<path class="st15" d="M534.9,813.74l-51.47,2.61c-0.05-10.28,1.07-20.46,3.29-30.35l49.74,13.42
					C535.54,804.11,535.01,808.9,534.9,813.74z"/>
			</g>
		</g>
		<g>
			<path class="st16" d="M632.58,762.96c-0.39-1.1-2.04-0.93-2.21,0.22c-4.8,31.78-39.93,43.45-51.45,74.36
				c-4.85,13.01-5.41,40.62,15.04,47.85c17.93,6.35,42.64-5.11,49.27-39.16C649.28,815.13,637.26,776.22,632.58,762.96z
				 M628.22,791.78c-0.66,1.95-1.59,3.76-2.58,5.52c-0.49,0.88-1,1.75-1.54,2.6c-0.55,0.82-1.11,1.66-1.68,2.46
				c-1.14,1.62-2.27,3.23-3.47,4.75c-4.76,6.14-9.67,11.81-14.06,17.67c-1.09,1.47-2.17,2.93-3.2,4.41
				c-1.03,1.49-2.01,2.99-2.98,4.5c-0.94,1.52-1.84,3.06-2.72,4.61c-0.42,0.78-0.87,1.55-1.25,2.35l-0.6,1.19l-0.52,0.98
				c-1.29,2.69-2.29,6.1-3.11,9.55c-0.21,0.87-0.4,1.75-0.54,2.65c-0.16,0.89-0.37,1.81-0.48,2.73c-0.26,1.85-0.5,3.75-0.64,5.79
				l-0.57,0.2c-1.29-3.66-1.84-7.55-1.8-11.42c0.05-3.87,0.56-7.76,1.86-11.46c2.95-7.19,7.13-13.74,11.95-19.74
				c4.79-6.03,10.19-11.51,15.46-17.04c2.63-2.77,5.24-5.57,7.6-8.55c2.33-2.97,4.5-6.19,5.42-9.86l0.59,0.14
				C629.36,787.82,628.91,789.86,628.22,791.78z"/>
			<path class="st17" d="M581.61,933.28c-1.42-0.08-2.94-0.22-4.55-0.43c-4.74-0.63-9.48,1.21-12.41,4.85
				c-19.21,23.85-53.7,70.56-75.16,140.24c-41.41,134.42-41.5,198.87-82.37,267.93c-1.57,2.65,1.95,5.34,4.27,3.27
				c31.67-28.3,130.57-154.64,159.77-267.67c16.31-63.12,21.89-110.11,23.79-133.35C595.59,940.45,589.59,933.73,581.61,933.28z
				 M528.81,1031.53c-1.26,2.98-2.6,5.92-3.8,8.92l-3.6,9c-2.24,6.06-4.53,12.11-6.54,18.25c-2.15,6.1-3.96,12.31-5.91,18.47
				c-0.93,3.1-1.78,6.21-2.68,9.32c-0.87,3.11-1.81,6.21-2.6,9.35c-3.42,12.48-6.38,25.06-9.44,37.65l-2.29,9.45
				c-0.76,3.15-1.62,6.28-2.42,9.41c-0.83,3.13-1.61,6.28-2.48,9.4l-2.64,9.36c-3.62,12.45-7.47,24.84-12.05,36.98
				c-2.36,6.04-4.75,12.08-7.59,17.93c-0.66,1.48-1.42,2.92-2.16,4.37c-0.72,1.46-1.52,2.88-2.32,4.29c-1.65,2.82-3.28,5.6-5.57,8.1
				l-0.64-0.68c1.73-2.59,3.09-5.56,4.32-8.5c0.62-1.47,1.26-2.93,1.81-4.45c0.57-1.5,1.16-2.98,1.65-4.51
				c2.15-6.03,4.04-12.16,5.8-18.32l2.62-9.25c0.85-3.09,1.61-6.22,2.41-9.32l2.34-9.33c0.78-3.11,1.58-6.21,2.27-9.35l4.29-18.78
				c0.7-3.14,1.46-6.25,2.11-9.4l1.98-9.44c1.3-6.25,2.82-12.65,4.24-19.02c0.71-3.19,1.49-6.36,2.32-9.53l2.45-9.51
				c0.81-3.17,1.78-6.3,2.69-9.45c0.93-3.14,1.81-6.3,2.79-9.43l3.08-9.36c1-3.12,2.1-6.23,3.27-9.3
				c4.61-12.31,9.48-24.59,15.5-36.32c1.41-2.97,3-5.86,4.51-8.78c1.5-2.93,3.09-5.8,4.75-8.63c3.29-5.68,6.68-11.28,10.15-16.8
				c7.1-10.96,14.31-21.69,21.79-32.39l0.83,0.43C552.29,985.46,539.1,1007.79,528.81,1031.53z"/>
			<path class="st17" d="M607.85,913.48c-15.11-5.43-19.79-0.02-36.81-3.23c-3.17-0.6-5.67,2.58-4.21,5.36
				c0.18,0.34,0.39,0.69,0.64,1.06c4.82,7.11,16.14,7.68,29.15,3.83c7.14-2.12,20.64-0.52,20.64-0.52S614.93,916.03,607.85,913.48z"
				/>
			<path class="st17" d="M605.16,904.35c11.41-5.94-31.75-6.86-32.14-0.51C572.75,908.26,592.48,910.96,605.16,904.35z"/>
		</g>
	</g>
	<g>
		<g>
			<g>
				<g>
					<path class="st17" d="M1101.66,581.19h24.12l57.58,132.36h-32.9l-11.4-28.04h-51.41l-11.03,28.04h-32.15L1101.66,581.19z
						 M1112.88,619.7l-16.08,41.13h32.34L1112.88,619.7z"/>
					<path class="st17" d="M1211.58,581.19h51.22c6.73,0,13.11,0.65,19.16,1.96c6.04,1.31,11.34,3.49,15.89,6.54
						c4.55,3.06,8.16,7.17,10.84,12.34c2.68,5.17,4.02,11.62,4.02,19.35c0,9.35-2.43,17.29-7.29,23.83
						c-4.86,6.54-11.96,10.69-21.31,12.43l33.65,55.9h-34.96l-27.67-52.9h-14.39v52.9h-29.16V581.19z M1240.75,635.97h17.2
						c2.62,0,5.39-0.09,8.32-0.28c2.93-0.19,5.58-0.75,7.95-1.68c2.37-0.94,4.33-2.4,5.89-4.39c1.56-1.99,2.34-4.8,2.34-8.41
						c0-3.37-0.69-6.04-2.06-8.04c-1.37-1.99-3.12-3.52-5.23-4.58c-2.12-1.06-4.55-1.78-7.29-2.15c-2.74-0.37-5.42-0.56-8.04-0.56
						h-19.07V635.97z"/>
					<path class="st17" d="M1369.93,606.99h-37.76v-25.8h104.69v25.8h-37.76v106.56h-29.16V606.99z"/>
				</g>
			</g>
		</g>
		<g>
			<g>
				<path class="st17" d="M1074.41,766.22h13.91l33.22,76.36h-18.98l-6.58-16.18h-29.66l-6.36,16.18h-18.55L1074.41,766.22z
					 M1080.88,788.44l-9.28,23.73h18.66L1080.88,788.44z"/>
				<path class="st17" d="M1186.88,822.83c-2.42,6.99-6.02,12.28-10.8,15.88c-4.78,3.6-10.58,5.4-17.43,5.4
					c-4.32,0-8.23-0.75-11.74-2.24s-6.69-3.73-9.53-6.71c-2.7-2.84-4.82-6.15-6.35-9.93c-1.53-3.77-2.29-7.63-2.29-11.56
					c0-4.04,0.69-7.82,2.08-11.35c1.39-3.53,3.43-6.75,6.13-9.66c2.98-3.19,6.34-5.62,10.06-7.27c3.72-1.65,7.71-2.48,11.95-2.48
					c6.64,0,12.39,1.83,17.27,5.5c4.88,3.67,8.43,8.82,10.64,15.46h-11.43c-1.83-3.55-4.18-6.2-7.06-7.95
					c-2.88-1.76-6.32-2.63-10.32-2.63c-5.16,0-9.54,1.95-13.14,5.85c-3.6,3.9-5.4,8.71-5.4,14.43c0,5.79,1.82,10.62,5.48,14.48
					c3.65,3.86,8.2,5.79,13.64,5.79c3.65,0,6.95-0.96,9.9-2.87c2.95-1.91,5.25-4.63,6.9-8.14H1186.88z"/>
				<path class="st17" d="M1256.55,822.83c-2.42,6.99-6.02,12.28-10.8,15.88c-4.78,3.6-10.58,5.4-17.43,5.4
					c-4.32,0-8.23-0.75-11.74-2.24s-6.69-3.73-9.53-6.71c-2.7-2.84-4.82-6.15-6.35-9.93c-1.53-3.77-2.29-7.63-2.29-11.56
					c0-4.04,0.69-7.82,2.08-11.35c1.39-3.53,3.43-6.75,6.13-9.66c2.98-3.19,6.34-5.62,10.06-7.27c3.72-1.65,7.71-2.48,11.95-2.48
					c6.64,0,12.39,1.83,17.27,5.5c4.88,3.67,8.43,8.82,10.64,15.46h-11.43c-1.83-3.55-4.18-6.2-7.06-7.95
					c-2.88-1.76-6.32-2.63-10.32-2.63c-5.16,0-9.54,1.95-13.14,5.85c-3.6,3.9-5.4,8.71-5.4,14.43c0,5.79,1.82,10.62,5.48,14.48
					c3.65,3.86,8.2,5.79,13.64,5.79c3.65,0,6.95-0.96,9.9-2.87c2.95-1.91,5.25-4.63,6.9-8.14H1256.55z"/>
				<path class="st17" d="M1278.98,817.46c0.88,4.84,3.06,8.77,6.56,11.77c3.49,3,7.64,4.5,12.46,4.5c3.44,0,6.57-0.82,9.4-2.48
					c2.83-1.65,5.08-3.98,6.77-7h11.74c-2.67,6.42-6.4,11.34-11.19,14.75c-4.79,3.41-10.37,5.11-16.72,5.11
					c-4.28,0-8.2-0.76-11.74-2.26s-6.76-3.77-9.64-6.79c-2.7-2.84-4.82-6.15-6.35-9.93c-1.53-3.77-2.29-7.63-2.29-11.56
					c0-4.07,0.69-7.88,2.08-11.43c1.39-3.55,3.43-6.78,6.13-9.69c2.88-3.16,6.13-5.54,9.74-7.14c3.62-1.6,7.56-2.4,11.85-2.4
					c5.09,0,9.82,1.19,14.19,3.55c4.37,2.37,7.98,5.68,10.82,9.93c1.68,2.63,2.93,5.52,3.74,8.66c0.81,3.14,1.21,6.73,1.21,10.77
					v1.63H1278.98z M1316.32,808.08c-1.3-4.77-3.55-8.47-6.74-11.08c-3.2-2.62-7.02-3.92-11.48-3.92c-4.56,0-8.52,1.34-11.88,4.03
					c-3.35,2.69-5.66,6.35-6.92,10.98H1316.32z"/>
				<path class="st17" d="M1341.12,842.58V765.9h10.32v76.68H1341.12z"/>
				<path class="st17" d="M1375.92,817.46c0.88,4.84,3.06,8.77,6.56,11.77c3.49,3,7.64,4.5,12.46,4.5c3.44,0,6.57-0.82,9.4-2.48
					c2.83-1.65,5.08-3.98,6.77-7h11.74c-2.67,6.42-6.4,11.34-11.19,14.75c-4.79,3.41-10.37,5.11-16.72,5.11
					c-4.28,0-8.2-0.76-11.74-2.26s-6.76-3.77-9.64-6.79c-2.7-2.84-4.82-6.15-6.35-9.93c-1.53-3.77-2.29-7.63-2.29-11.56
					c0-4.07,0.69-7.88,2.08-11.43c1.39-3.55,3.43-6.78,6.13-9.69c2.88-3.16,6.13-5.54,9.74-7.14c3.62-1.6,7.56-2.4,11.85-2.4
					c5.09,0,9.82,1.19,14.19,3.55c4.37,2.37,7.98,5.68,10.82,9.93c1.68,2.63,2.93,5.52,3.74,8.66c0.81,3.14,1.21,6.73,1.21,10.77
					v1.63H1375.92z M1413.26,808.08c-1.3-4.77-3.55-8.47-6.74-11.08c-3.2-2.62-7.02-3.92-11.48-3.92c-4.56,0-8.52,1.34-11.88,4.03
					c-3.35,2.69-5.66,6.35-6.92,10.98H1413.26z"/>
				<path class="st17" d="M1448.59,842.58h-10.43v-57.93h9.79v6.69c1.72-2.56,3.7-4.47,5.92-5.71c2.23-1.25,4.82-1.89,7.77-1.92
					v10.9c-4.67,0.35-8.01,1.73-10.03,4.13c-2.02,2.4-3.03,6.28-3.03,11.61V842.58z"/>
				<path class="st17" d="M1520.37,842.58v-7.11c-2.67,2.77-5.64,4.87-8.93,6.29c-3.28,1.42-6.79,2.13-10.51,2.13
					c-8.71,0-15.94-2.9-21.7-8.72c-5.76-5.81-8.64-13.09-8.64-21.83c0-4.07,0.72-7.93,2.16-11.59c1.44-3.65,3.49-6.86,6.16-9.64
					c2.91-3.05,6.1-5.31,9.56-6.77c3.46-1.46,7.4-2.19,11.82-2.19c3.97,0,7.62,0.7,10.95,2.11c3.33,1.4,6.37,3.53,9.11,6.37v-7
					h10.53v57.93H1520.37z M1481.4,813.25c0,5.86,1.94,10.78,5.82,14.75c3.88,3.97,8.63,5.95,14.25,5.95
					c5.12,0,9.65-1.99,13.56-5.98c3.91-3.98,5.87-8.64,5.87-13.98c0-5.69-1.94-10.56-5.82-14.61c-3.88-4.06-8.49-6.08-13.82-6.08
					c-5.48,0-10.16,1.93-14.03,5.79C1483.34,802.94,1481.4,807.66,1481.4,813.25z"/>
				<path class="st17" d="M1550.85,842.58v-48.45h-8.21v-9.48h8.21V765.9h10.38v18.75h8.21v9.48h-8.21v48.45H1550.85z"/>
				<path class="st17" d="M1589.03,817.46c0.88,4.84,3.06,8.77,6.56,11.77c3.49,3,7.64,4.5,12.46,4.5c3.44,0,6.57-0.82,9.4-2.48
					c2.83-1.65,5.08-3.98,6.77-7h11.74c-2.67,6.42-6.4,11.34-11.19,14.75c-4.79,3.41-10.37,5.11-16.72,5.11
					c-4.28,0-8.2-0.76-11.74-2.26s-6.76-3.77-9.64-6.79c-2.7-2.84-4.82-6.15-6.35-9.93c-1.53-3.77-2.29-7.63-2.29-11.56
					c0-4.07,0.69-7.88,2.08-11.43c1.39-3.55,3.43-6.78,6.13-9.69c2.88-3.16,6.13-5.54,9.74-7.14c3.62-1.6,7.56-2.4,11.85-2.4
					c5.09,0,9.82,1.19,14.19,3.55c4.37,2.37,7.98,5.68,10.82,9.93c1.68,2.63,2.93,5.52,3.74,8.66c0.81,3.14,1.21,6.73,1.21,10.77
					v1.63H1589.03z M1626.37,808.08c-1.3-4.77-3.55-8.47-6.74-11.08c-3.2-2.62-7.02-3.92-11.48-3.92c-4.56,0-8.52,1.34-11.88,4.03
					c-3.35,2.69-5.66,6.35-6.92,10.98H1626.37z"/>
				<path class="st17" d="M1049.28,903.07h29.55c3.88,0,7.57,0.38,11.05,1.13c3.49,0.75,6.54,2.01,9.17,3.78
					c2.62,1.76,4.71,4.13,6.25,7.12c1.55,2.98,2.32,6.71,2.32,11.16c0,5.39-1.4,9.98-4.21,13.75c-2.8,3.78-6.9,6.17-12.3,7.17
					l19.41,32.25h-20.17l-15.96-30.52h-8.3v30.52h-16.82V903.07z M1066.1,934.67h9.92c1.51,0,3.11-0.05,4.8-0.16
					c1.69-0.11,3.22-0.43,4.58-0.97c1.37-0.54,2.5-1.38,3.4-2.54c0.9-1.15,1.35-2.77,1.35-4.85c0-1.94-0.4-3.49-1.19-4.64
					c-0.79-1.15-1.8-2.03-3.02-2.64c-1.22-0.61-2.62-1.02-4.21-1.24c-1.58-0.22-3.13-0.32-4.64-0.32h-11V934.67z"/>
				<path class="st17" d="M1129.62,954.31c0.88,4.85,3.06,8.77,6.56,11.77s7.64,4.5,12.46,4.5c3.44,0,6.57-0.82,9.4-2.47
					c2.83-1.65,5.08-3.98,6.77-7h11.74c-2.67,6.42-6.4,11.34-11.19,14.75c-4.79,3.41-10.37,5.11-16.72,5.11
					c-4.28,0-8.2-0.76-11.74-2.26s-6.76-3.77-9.64-6.79c-2.7-2.84-4.82-6.15-6.35-9.93s-2.29-7.63-2.29-11.56
					c0-4.07,0.69-7.88,2.08-11.43c1.39-3.55,3.43-6.78,6.13-9.69c2.88-3.16,6.13-5.54,9.74-7.14c3.62-1.6,7.56-2.4,11.85-2.4
					c5.09,0,9.82,1.18,14.19,3.55s7.98,5.68,10.82,9.93c1.68,2.63,2.93,5.52,3.74,8.66c0.81,3.14,1.21,6.73,1.21,10.77v1.63H1129.62
					z M1166.95,944.93c-1.3-4.77-3.55-8.47-6.74-11.09c-3.2-2.61-7.02-3.92-11.48-3.92c-4.56,0-8.52,1.34-11.88,4.03
					s-5.66,6.35-6.92,10.98H1166.95z"/>
				<path class="st17" d="M1202.07,914.71h-10.32v-11.95h10.32V914.71z M1191.75,979.43V921.5h10.32v57.93H1191.75z"/>
				<path class="st17" d="M1229.24,979.43h-10.43V921.5h10.01v6.58c2.18-2.6,4.57-4.5,7.19-5.71c2.62-1.21,5.61-1.82,8.98-1.82
					c7.58,0,13.4,2.23,17.46,6.69s6.08,10.85,6.08,19.17v33.02h-10.48v-30.75c0-6.14-1.14-10.7-3.42-13.67
					c-2.28-2.97-5.81-4.45-10.58-4.45c-5.2,0-8.96,1.75-11.3,5.24c-2.34,3.49-3.5,9.26-3.5,17.3V979.43z"/>
				<path class="st17" d="M1308.97,979.43h-7.85l-22.01-57.93h11.22l15.22,42.29l15.64-42.29h11.01L1308.97,979.43z"/>
				<path class="st17" d="M1350.51,954.31c0.88,4.85,3.06,8.77,6.56,11.77s7.64,4.5,12.46,4.5c3.44,0,6.57-0.82,9.4-2.47
					c2.83-1.65,5.08-3.98,6.77-7h11.74c-2.67,6.42-6.4,11.34-11.19,14.75c-4.79,3.41-10.37,5.11-16.72,5.11
					c-4.28,0-8.2-0.76-11.74-2.26s-6.76-3.77-9.64-6.79c-2.7-2.84-4.82-6.15-6.35-9.93s-2.29-7.63-2.29-11.56
					c0-4.07,0.69-7.88,2.08-11.43c1.39-3.55,3.43-6.78,6.13-9.69c2.88-3.16,6.13-5.54,9.74-7.14c3.62-1.6,7.56-2.4,11.85-2.4
					c5.09,0,9.82,1.18,14.19,3.55s7.98,5.68,10.82,9.93c1.68,2.63,2.93,5.52,3.74,8.66c0.81,3.14,1.21,6.73,1.21,10.77v1.63H1350.51
					z M1387.85,944.93c-1.3-4.77-3.55-8.47-6.74-11.09c-3.2-2.61-7.02-3.92-11.48-3.92c-4.56,0-8.52,1.34-11.88,4.03
					s-5.66,6.35-6.92,10.98H1387.85z"/>
				<path class="st17" d="M1423.08,979.43h-10.43V921.5h10.01v6.58c2.18-2.6,4.57-4.5,7.19-5.71c2.62-1.21,5.61-1.82,8.98-1.82
					c7.58,0,13.4,2.23,17.46,6.69s6.08,10.85,6.08,19.17v33.02h-10.48v-30.75c0-6.14-1.14-10.7-3.42-13.67
					c-2.28-2.97-5.81-4.45-10.58-4.45c-5.2,0-8.96,1.75-11.3,5.24c-2.34,3.49-3.5,9.26-3.5,17.3V979.43z"/>
				<path class="st17" d="M1482.42,979.43v-48.45h-8.21v-9.48h8.21v-18.75h10.38v18.75h8.21v9.48h-8.21v48.45H1482.42z"/>
				<path class="st17" d="M1064.05,1054.8h-21.79v-14.88h60.4v14.88h-21.79v61.48h-16.83V1054.8z"/>
				<path class="st17" d="M1124.42,1116.28H1114v-57.93h9.79v6.69c1.72-2.56,3.7-4.47,5.92-5.71c2.23-1.25,4.82-1.89,7.77-1.92v10.9
					c-4.67,0.35-8.01,1.73-10.03,4.13c-2.02,2.41-3.03,6.28-3.03,11.61V1116.28z"/>
				<path class="st17" d="M1196.2,1116.28v-7.11c-2.67,2.77-5.64,4.87-8.93,6.29c-3.28,1.42-6.79,2.13-10.51,2.13
					c-8.71,0-15.94-2.9-21.7-8.72c-5.76-5.81-8.64-13.09-8.64-21.83c0-4.07,0.72-7.93,2.16-11.58s3.49-6.86,6.16-9.64
					c2.91-3.05,6.1-5.31,9.56-6.77s7.4-2.19,11.82-2.19c3.97,0,7.62,0.7,10.95,2.11c3.33,1.4,6.37,3.53,9.11,6.37v-7h10.53v57.93
					H1196.2z M1157.23,1086.95c0,5.86,1.94,10.78,5.82,14.75c3.88,3.97,8.63,5.95,14.25,5.95c5.12,0,9.65-1.99,13.56-5.98
					c3.91-3.98,5.87-8.65,5.87-13.98c0-5.69-1.94-10.56-5.82-14.61c-3.88-4.05-8.49-6.08-13.82-6.08c-5.48,0-10.16,1.93-14.03,5.79
					C1159.17,1076.64,1157.23,1081.36,1157.23,1086.95z"/>
				<path class="st17" d="M1233.58,1116.28h-10.43v-57.93h10.01v6.58c2.18-2.6,4.57-4.5,7.19-5.71c2.62-1.21,5.61-1.82,8.98-1.82
					c7.58,0,13.4,2.23,17.46,6.69s6.08,10.85,6.08,19.17v33.02h-10.48v-30.75c0-6.14-1.14-10.7-3.42-13.67
					c-2.28-2.97-5.81-4.45-10.58-4.45c-5.2,0-8.96,1.75-11.3,5.24c-2.34,3.49-3.5,9.26-3.5,17.3V1116.28z"/>
				<path class="st17" d="M1285.4,1097.53h9.79c0,3.05,0.85,5.57,2.55,7.56c1.7,1.98,3.83,2.98,6.4,2.98c2.42,0,4.41-0.75,5.98-2.24
					c1.56-1.49,2.34-3.4,2.34-5.71c0-2.04-0.55-3.76-1.66-5.16c-1.11-1.4-2.89-2.6-5.34-3.58c-0.84-0.35-2.04-0.81-3.58-1.37
					c-4.11-1.54-6.72-2.77-7.85-3.69c-2.07-1.65-3.6-3.52-4.58-5.61c-0.98-2.09-1.47-4.5-1.47-7.24c0-4.7,1.64-8.71,4.92-12.01
					c3.28-3.3,7.29-4.95,12.03-4.95c4.95,0,8.88,1.45,11.8,4.34c2.91,2.9,4.51,6.96,4.79,12.19h-10.01c-0.18-2.14-0.88-3.81-2.11-5
					c-1.23-1.19-2.88-1.79-4.95-1.79c-1.86,0-3.42,0.64-4.66,1.92c-1.25,1.28-1.87,2.87-1.87,4.77c0,3.23,2.81,5.88,8.43,7.95
					c1.58,0.6,2.83,1.07,3.74,1.42c4.42,1.79,7.57,4.02,9.45,6.69c1.88,2.67,2.82,6.23,2.82,10.69c0,5.2-1.76,9.51-5.27,12.96
					c-3.51,3.44-7.93,5.16-13.27,5.16c-5.37,0-9.71-1.81-13.01-5.42C1287.52,1108.77,1285.72,1103.82,1285.4,1097.53z"/>
				<path class="st17" d="M1390.67,1096.53c-2.42,6.99-6.02,12.28-10.8,15.88c-4.78,3.6-10.58,5.4-17.43,5.4
					c-4.32,0-8.23-0.75-11.74-2.24s-6.69-3.73-9.53-6.71c-2.7-2.84-4.82-6.15-6.35-9.93c-1.53-3.77-2.29-7.63-2.29-11.56
					c0-4.04,0.69-7.82,2.08-11.35c1.39-3.53,3.43-6.75,6.13-9.66c2.98-3.19,6.34-5.62,10.06-7.27c3.72-1.65,7.71-2.48,11.95-2.48
					c6.64,0,12.39,1.83,17.27,5.5c4.88,3.67,8.43,8.82,10.64,15.46h-11.43c-1.83-3.55-4.18-6.2-7.06-7.95
					c-2.88-1.75-6.32-2.63-10.32-2.63c-5.16,0-9.54,1.95-13.14,5.85c-3.6,3.9-5.4,8.71-5.4,14.43c0,5.79,1.82,10.62,5.48,14.48
					c3.65,3.86,8.2,5.79,13.64,5.79c3.65,0,6.95-0.96,9.9-2.87c2.95-1.91,5.25-4.62,6.9-8.14H1390.67z"/>
				<path class="st17" d="M1413.1,1091.16c0.88,4.85,3.06,8.77,6.56,11.77s7.64,4.5,12.46,4.5c3.44,0,6.57-0.82,9.4-2.47
					c2.83-1.65,5.08-3.98,6.77-7h11.74c-2.67,6.42-6.4,11.34-11.19,14.75c-4.79,3.41-10.37,5.11-16.72,5.11
					c-4.28,0-8.2-0.76-11.74-2.26s-6.76-3.77-9.64-6.79c-2.7-2.84-4.82-6.15-6.35-9.93s-2.29-7.63-2.29-11.56
					c0-4.07,0.69-7.88,2.08-11.43c1.39-3.55,3.43-6.78,6.13-9.69c2.88-3.16,6.13-5.54,9.74-7.14c3.62-1.6,7.56-2.4,11.85-2.4
					c5.09,0,9.82,1.18,14.19,3.55s7.98,5.68,10.82,9.93c1.68,2.63,2.93,5.52,3.74,8.66c0.81,3.14,1.21,6.73,1.21,10.77v1.63H1413.1z
					 M1450.43,1081.79c-1.3-4.77-3.55-8.47-6.74-11.09c-3.2-2.61-7.02-3.92-11.48-3.92c-4.56,0-8.52,1.34-11.88,4.03
					s-5.66,6.35-6.92,10.98H1450.43z"/>
				<path class="st17" d="M1485.66,1116.28h-10.43v-57.93h10.01v6.58c2.18-2.6,4.57-4.5,7.19-5.71c2.62-1.21,5.61-1.82,8.98-1.82
					c7.58,0,13.4,2.23,17.46,6.69s6.08,10.85,6.08,19.17v33.02h-10.48v-30.75c0-6.14-1.14-10.7-3.42-13.67
					c-2.28-2.97-5.81-4.45-10.58-4.45c-5.2,0-8.96,1.75-11.3,5.24c-2.34,3.49-3.5,9.26-3.5,17.3V1116.28z"/>
				<path class="st17" d="M1588.29,1116.28v-7.11c-2.67,2.77-5.64,4.87-8.93,6.29c-3.28,1.42-6.79,2.13-10.51,2.13
					c-8.71,0-15.94-2.9-21.7-8.72c-5.76-5.81-8.64-13.09-8.64-21.83c0-4.07,0.72-7.93,2.16-11.58s3.49-6.86,6.16-9.64
					c2.91-3.05,6.1-5.31,9.56-6.77s7.4-2.19,11.82-2.19c3.93,0,7.57,0.7,10.93,2.11s6.43,3.53,9.24,6.37v-25.75h10.43v76.68H1588.29
					z M1549.32,1086.95c0,5.86,1.94,10.78,5.82,14.75c3.88,3.97,8.63,5.95,14.25,5.95c5.12,0,9.65-1.99,13.56-5.98
					c3.91-3.98,5.87-8.65,5.87-13.98c0-5.69-1.94-10.56-5.82-14.61c-3.88-4.05-8.49-6.08-13.82-6.08c-5.48,0-10.16,1.93-14.03,5.79
					C1551.26,1076.64,1549.32,1081.36,1549.32,1086.95z"/>
			</g>
		</g>
	</g>
</g>
</svg>
