<svg id="Layer_1" data-name="Layer 1" xmlns="http://www.w3.org/2000/svg" xmlns:xlink="http://www.w3.org/1999/xlink" viewBox="0 0 900 749"><defs><style>.cls-1{fill:url(#linear-gradient);}.cls-2{fill:#4c5ba6;}.cls-3{fill:#bdbd00;}</style><linearGradient id="linear-gradient" x1="170.6" y1="327.99" x2="257.61" y2="417.52" gradientUnits="userSpaceOnUse"><stop offset="0" stop-color="#bdbd00"/><stop offset="0.24" stop-color="#a5a823"/><stop offset="0.76" stop-color="#6a757b"/><stop offset="1" stop-color="#4c5ba6"/></linearGradient></defs><title>Biostatistics &amp;amp; Programming (B&amp;amp;P)</title><path class="cls-1" d="M200.81,330.49a71.59,71.59,0,0,1,67.91,2.23,17.78,17.78,0,0,0-8.75,1.72,16.34,16.34,0,1,0,22.81,9.09A70.77,70.77,0,0,1,296.32,362c.34.86.69,1.54,1,2.23-36.35,9.95-86.08-8.75-110.6,61,29.67-50.07,82.31-29.84,115.75-45.61h0c.34-.17.86-.51,1.2-.68.17,0,.34-.17.51-.17a6.87,6.87,0,0,1,1.54-.86c.17-.17.51-.34.69-.51a6.1,6.1,0,0,0,1.37-.86,1.29,1.29,0,0,0,.69-.34c.52-.34.86-.69,1.37-1,.17-.17.34-.17.51-.34.52-.34,1-.86,1.54-1.2l.34-.34c.52-.51,1-.86,1.54-1.37,0-.17.17-.17.34-.34l1.37-1.37.51-.51a11.27,11.27,0,0,1,1.37-1.54c0-.17.17-.34.34-.51.34-.52.86-1,1.2-1.54.17-.17.17-.34.34-.34a14.44,14.44,0,0,1,1.37-2.06c0-.17.17-.17.17-.34.34-.69.86-1.37,1.2-2.06.17-.17.17-.34.34-.52a14.17,14.17,0,0,1,1.2-2.23v-.34a10.33,10.33,0,0,0,1.2-2.4c0-.17.17-.34.17-.51l1-2.57c.17-.17.17-.17.17-.34.34-.86.69-1.89,1-2.92a.6.6,0,0,0,.17-.34c.34-1,.52-2.06.86-3.08v-.17c.34-1.2.69-2.23,1-3.43v-.34a26.29,26.29,0,0,0,.69-3.6l.17-.17a31.78,31.78,0,0,1,.69-3.95h0c1,27.78-8.4,44.24-26.92,59a71,71,0,0,1-113,58.13c39.44-13,58.3-61.56,105.63-41.15-71.85-55.56-88.31,55.22-167.36,32.24.17,0,.17,0,.17.17l-.17-.17v.17l-1.37-.51c15.09-.34,32.93-3.26,43.9-11.66-.86-1.55-1.71-2.92-2.4-4.46A71.4,71.4,0,0,1,200.81,330.49Z"/><path class="cls-2" d="M341.71,322.07h16.68c8.06,0,12.56,5.07,12.56,11.16,0,4-2.35,6.72-6.09,7.93,5.9,1.4,8.75,5.33,8.75,10.72,0,7.68-5.45,13.32-14.46,13.32H341.71ZM357.44,338c2.85,0,4.76-1.59,4.76-4.06s-1.59-4.06-4.31-4.06h-7.29V338Zm1.33,19.41a5.58,5.58,0,0,0,5.9-6c0-3.49-2.35-5.9-6.41-5.9h-7.67V357.4Z"/><path class="cls-2" d="M378.43,328.28a5.42,5.42,0,1,1,5.45,5.39A5.35,5.35,0,0,1,378.43,328.28Zm1.14,9.9h8.56v27h-8.56Z"/><path class="cls-2" d="M394.23,351.75c0-8.25,6.53-14.15,14.9-14.15S424,343.51,424,351.75s-6.47,14-14.84,14S394.23,359.93,394.23,351.75Zm21,0c0-4.06-2.28-6.79-6.09-6.79s-6.15,2.73-6.15,6.79,2.35,6.79,6.15,6.79S415.22,355.75,415.22,351.75Z"/><path class="cls-2" d="M427.46,360.63l5-4.44A9.69,9.69,0,0,0,439.2,359c2.79,0,3.68-.51,3.68-1.65,0-1.46-1.71-1.46-6.09-2.6-3.68-1-7.8-3-7.8-8.63,0-6.09,4.69-8.56,10.47-8.56,4.44,0,7.61,1.46,9.83,3.74l-4.57,4.89a8.34,8.34,0,0,0-5.2-2c-2,0-2.92.51-2.92,1.59,0,1.52,1.71,1.71,5.39,2.54,3.93.89,8.88,2.73,8.88,8.44,0,4.95-2.6,9-11.1,9C433.49,365.77,429.81,363.42,427.46,360.63Z"/><path class="cls-2" d="M457.78,355v-9.77h-4v-7.1h4V324.1h8.5v14.08h6.91v7.1h-6.91v10c0,2.73.89,3.3,2.22,3.3a5.23,5.23,0,0,0,3-1.14l3.24,6a11.37,11.37,0,0,1-7.55,2.47C461.71,365.9,457.78,363.17,457.78,355Z"/><path class="cls-2" d="M491.46,344.65a8.46,8.46,0,0,0-6.15,2.47L480.55,342c2.54-2.47,5.39-4.44,11.73-4.44,6.91,0,12.18,3.74,12.18,12.24V365.2H496l.19-3.74a8.54,8.54,0,0,1-8,4.31c-4.95,0-9.51-2.22-9.51-8.5,0-5.77,4.38-8.12,11-8.12H496C495.84,346,494.32,344.65,491.46,344.65Zm-1.33,9.58c-2.16,0-3.11,1-3.11,2.47s1.27,2.41,3.68,2.41c3.49,0,5.26-1.52,5.26-3.81v-1.08Z"/><path class="cls-2" d="M513.28,355v-9.77h-4v-7.1h4V324.1h8.5v14.08h6.91v7.1h-6.91v10c0,2.73.89,3.3,2.22,3.3a5.23,5.23,0,0,0,3-1.14l3.24,6a11.37,11.37,0,0,1-7.55,2.47C517.21,365.9,513.28,363.17,513.28,355Z"/><path class="cls-2" d="M533.77,328.28a5.35,5.35,0,0,1,5.46-5.33,5.36,5.36,0,1,1,0,10.72A5.36,5.36,0,0,1,533.77,328.28Zm1.14,9.9h8.56v27h-8.56Z"/><path class="cls-2" d="M548.55,360.63l5-4.44a9.69,9.69,0,0,0,6.72,2.85c2.79,0,3.68-.51,3.68-1.65,0-1.46-1.71-1.46-6.09-2.6-3.68-1-7.8-3-7.8-8.63,0-6.09,4.69-8.56,10.47-8.56,4.44,0,7.61,1.46,9.83,3.74l-4.57,4.89a8.34,8.34,0,0,0-5.2-2c-2,0-2.92.51-2.92,1.59,0,1.52,1.71,1.71,5.39,2.54,3.93.89,8.88,2.73,8.88,8.44,0,4.95-2.6,9-11.1,9C554.57,365.77,550.89,363.42,548.55,360.63Z"/><path class="cls-2" d="M578.87,355v-9.77h-4v-7.1h4V324.1h8.5v14.08h6.91v7.1h-6.91v10c0,2.73.89,3.3,2.22,3.3a5.23,5.23,0,0,0,3-1.14l3.24,6a11.37,11.37,0,0,1-7.55,2.47C582.8,365.9,578.87,363.17,578.87,355Z"/><path class="cls-2" d="M599.35,328.28a5.35,5.35,0,0,1,5.46-5.33,5.36,5.36,0,1,1,0,10.72A5.36,5.36,0,0,1,599.35,328.28Zm1.14,9.9h8.56v27H600.5Z"/><path class="cls-2" d="M615.15,351.62c0-8.18,6.34-14,14.78-14,5.39,0,8.63,2,11.35,5.39l-6.09,4.95a6.37,6.37,0,0,0-5.26-2.85c-3.87,0-6,2.73-6,6.53s2.16,6.72,6,6.72a7.1,7.1,0,0,0,5.45-2.54l5.77,5.07c-2.66,3-5.84,4.89-11.23,4.89C621.49,365.77,615.15,359.93,615.15,351.62Z"/><path class="cls-2" d="M644.39,360.63l5-4.44a9.69,9.69,0,0,0,6.72,2.85c2.79,0,3.68-.51,3.68-1.65,0-1.46-1.71-1.46-6.09-2.6-3.68-1-7.8-3-7.8-8.63,0-6.09,4.69-8.56,10.47-8.56,4.44,0,7.61,1.46,9.83,3.74l-4.57,4.89a8.34,8.34,0,0,0-5.2-2c-2,0-2.92.51-2.92,1.59,0,1.52,1.71,1.71,5.39,2.54,3.93.89,8.88,2.73,8.88,8.44,0,4.95-2.6,9-11.1,9C650.41,365.77,646.73,363.42,644.39,360.63Z"/><path class="cls-3" d="M366.76,407.3a27.32,27.32,0,0,0,1.84-10.47H373a29.61,29.61,0,0,1-3.24,14.08l7.61,9.26h-5.52l-4.63-5.58a17.81,17.81,0,0,1-13.57,6.09c-8.37,0-13.7-4.63-13.7-11.73s4.82-10.53,11.1-14l-.76-1c-2.35-2.92-3.49-5.77-3.49-8.63,0-5,3.62-8.88,9.26-8.88s9.13,3.81,9.13,8.82c0,4.38-3.11,7.61-7.93,10.4Zm-13.45-9.51c-5.14,2.79-8.63,5.58-8.63,10.91,0,4.95,3.3,7.93,8.94,7.93a13.26,13.26,0,0,0,10.85-5.33ZM361,385.36a4.7,4.7,0,0,0-4.88-5,4.65,4.65,0,0,0-4.95,5,9.3,9.3,0,0,0,2.54,6.09l1.21,1.46C358.58,390.75,361,388.53,361,385.36Z"/><path class="cls-3" d="M399.62,377h9.77c11.8,0,17.82,6.53,17.82,16.24,0,9.51-6,16.17-17.82,16.17h-5.2v10.72h-4.57Zm9.51,28.42c9.7,0,13.32-5.07,13.32-12.18s-3.62-12.18-13.32-12.18h-4.95v24.36Z"/><path class="cls-3" d="M434.82,393.92h4.44l-.13,5.14c1.65-4,4.57-5.65,7.68-5.65a7.65,7.65,0,0,1,4.57,1.27l-1.71,3.87a6.14,6.14,0,0,0-3.62-1c-3.74,0-6.79,2.66-6.79,8.82v13.83h-4.44Z"/><path class="cls-3" d="M455.18,407a13.89,13.89,0,1,1,14,13.64A13.66,13.66,0,0,1,455.18,407Zm23.28,0c0-5.64-3.74-9.83-9.32-9.83s-9.45,4.19-9.45,9.83,3.81,9.83,9.45,9.83S478.46,412.69,478.46,407Z"/><path class="cls-3" d="M513.54,393.92v3.36H508.4a7.63,7.63,0,0,1,2.09,5.39c0,5.39-4.12,9.39-10.21,9.39a11.27,11.27,0,0,1-5.39-1.2,2.69,2.69,0,0,0-2.16,2.66c0,1.71,1.2,2.54,3.42,2.66l6.72.51c7.49.57,11,3.3,11,8.31,0,5.71-5.26,9.32-14,9.32-8.44,0-13.45-3.36-13.45-8.63,0-3.62,2.54-5.71,6.22-6.85a4.9,4.9,0,0,1-3.68-4.88,5.18,5.18,0,0,1,3.62-4.82,8.35,8.35,0,0,1-2.85-6.47c0-5.46,4.38-9.33,10.47-9.33a11.88,11.88,0,0,1,3.74.57Zm-22.64,31.4c0,3.49,3,5.46,9.07,5.46,5.9,0,9.45-2,9.45-5.58,0-2.92-1.71-4.19-7.29-4.57l-6.6-.44C492.73,421,490.89,422.65,490.89,425.32Zm15.6-22.64c0-3.55-2.35-5.9-6.28-5.9s-6.34,2.35-6.34,5.9,2.35,6,6.34,6S506.5,406.22,506.5,402.67Z"/><path class="cls-3" d="M520.26,393.92h4.44l-.13,5.14c1.65-4,4.57-5.65,7.68-5.65a7.65,7.65,0,0,1,4.57,1.27l-1.71,3.87a6.14,6.14,0,0,0-3.62-1c-3.74,0-6.79,2.66-6.79,8.82v13.83h-4.44Z"/><path class="cls-3" d="M558.25,404.13c0-5.07-2.28-7-6.15-7a9,9,0,0,0-7.68,3.81l-2.73-2.47c2.28-3.11,5.71-5.07,10.72-5.07,5.84,0,10.28,3.43,10.28,10.72v16.11h-4.44l.19-3.93a9.76,9.76,0,0,1-8.69,4.44c-5.58,0-9.64-2.54-9.64-8s4.44-7.93,10-7.93h8.18Zm-7.86,4c-3.36,0-6,1.21-6,4.38,0,3,2.22,4.57,6.34,4.57s7.48-2.22,7.48-5.65v-3.3Z"/><path class="cls-3" d="M571.83,393.92h4.44l-.13,4.95c1.71-3.55,4.57-5.52,8.25-5.52a7.87,7.87,0,0,1,7.93,5.52,10.16,10.16,0,0,1,9.07-5.52c5.77,0,9.32,3.81,9.32,10v16.81h-4.38V403.94c0-4.19-1.65-6.53-5.77-6.53s-7,2.85-7,8.06v14.72h-4.44V403.94c0-4.19-1.65-6.53-5.71-6.53s-7.1,2.85-7.1,8.06v14.72h-4.44Z"/><path class="cls-3" d="M619.84,393.92h4.44l-.13,4.95c1.71-3.55,4.57-5.52,8.25-5.52a7.87,7.87,0,0,1,7.93,5.52,10.16,10.16,0,0,1,9.07-5.52c5.77,0,9.32,3.81,9.32,10v16.81h-4.38V403.94c0-4.19-1.65-6.53-5.77-6.53s-7,2.85-7,8.06v14.72H637.1V403.94c0-4.19-1.65-6.53-5.71-6.53s-7.1,2.85-7.1,8.06v14.72h-4.44Z"/><path class="cls-3" d="M667,383.2a3.17,3.17,0,1,1,6.34,0,3.17,3.17,0,0,1-6.34,0Zm1,10.72h4.44v26.26H668Z"/><path class="cls-3" d="M681.94,393.92h4.44l-.13,5.39a10.06,10.06,0,0,1,9.45-6c5.84,0,9.83,4,9.83,10.85v16h-4.44V404.7c0-4.63-2.16-7.29-6.53-7.29-4.88,0-8.18,3.11-8.18,8.31v14.46h-4.44Z"/><path class="cls-3" d="M737.82,393.92v3.36h-5.14a7.63,7.63,0,0,1,2.09,5.39c0,5.39-4.12,9.39-10.21,9.39a11.27,11.27,0,0,1-5.39-1.2,2.69,2.69,0,0,0-2.16,2.66c0,1.71,1.2,2.54,3.42,2.66l6.72.51c7.49.57,11,3.3,11,8.31,0,5.71-5.26,9.32-14,9.32-8.44,0-13.45-3.36-13.45-8.63,0-3.62,2.54-5.71,6.22-6.85a4.9,4.9,0,0,1-3.68-4.88,5.18,5.18,0,0,1,3.62-4.82,8.35,8.35,0,0,1-2.85-6.47c0-5.46,4.38-9.33,10.47-9.33a11.88,11.88,0,0,1,3.74.57Zm-22.64,31.4c0,3.49,3,5.46,9.07,5.46,5.9,0,9.45-2,9.45-5.58,0-2.92-1.71-4.19-7.29-4.57l-6.6-.44C717,421,715.17,422.65,715.17,425.32Zm15.6-22.64c0-3.55-2.35-5.9-6.28-5.9s-6.34,2.35-6.34,5.9,2.35,6,6.34,6S730.78,406.22,730.78,402.67Z"/><path class="cls-2" d="M347.77,460.43h-7.84V444H342v14.53h5.78Z"/><path class="cls-2" d="M351.28,456.52a3.62,3.62,0,0,0,.5.91,3.81,3.81,0,0,0,1.34,1.16,3.72,3.72,0,0,0,1.71.39,3.91,3.91,0,0,0,2-.53,3.66,3.66,0,0,0,1.41-1.41l1.65.61a5.34,5.34,0,0,1-2.07,2.24,5.67,5.67,0,0,1-3,.81,6,6,0,0,1-2.32-.44,5.46,5.46,0,0,1-1.83-1.22,5.52,5.52,0,0,1-1.19-1.86,6.4,6.4,0,0,1-.43-2.38,6.5,6.5,0,0,1,.43-2.4,5.86,5.86,0,0,1,1.18-1.89,5.21,5.21,0,0,1,1.79-1.24,6.16,6.16,0,0,1,4.58,0,5.64,5.64,0,0,1,1.83,1.22,5.48,5.48,0,0,1,1.2,1.83,6.08,6.08,0,0,1,.43,2.31V455a3.31,3.31,0,0,1,0,.41H351A5,5,0,0,0,351.28,456.52Zm7-3.63a3.37,3.37,0,0,0-.44-.85,3.91,3.91,0,0,0-1.36-1.13,3.84,3.84,0,0,0-1.76-.42,3.76,3.76,0,0,0-1.75.42,3.42,3.42,0,0,0-1.3,1.16,3.26,3.26,0,0,0-.39.82,10,10,0,0,0-.25,1.09h7.45A4.44,4.44,0,0,0,358.32,452.9Z"/><path class="cls-2" d="M373.68,449.1v11.33h-1.87v-2.19a6.07,6.07,0,0,1-1.84,1.87,4.35,4.35,0,0,1-2.29.59,5.11,5.11,0,0,1-2.15-.44,5.18,5.18,0,0,1-1.68-1.22,5.45,5.45,0,0,1-1.11-1.86,6.93,6.93,0,0,1-.39-2.38,6.84,6.84,0,0,1,.41-2.4,5.88,5.88,0,0,1,1.12-1.89,5,5,0,0,1,1.7-1.24,5.21,5.21,0,0,1,2.16-.44,4.78,4.78,0,0,1,2.27.52,5.63,5.63,0,0,1,1.81,1.62V449.1Zm-8.43,2.75a4.9,4.9,0,0,0-.69,1.39,5.3,5.3,0,0,0-.25,1.61,4.87,4.87,0,0,0,.28,1.68,4.34,4.34,0,0,0,.76,1.34,3.44,3.44,0,0,0,1.14.89,3.3,3.3,0,0,0,1.45.32,3.38,3.38,0,0,0,1.51-.34,3.92,3.92,0,0,0,1.23-.95,4.6,4.6,0,0,0,.84-1.41,4.81,4.81,0,0,0,.31-1.72,4.87,4.87,0,0,0-.28-1.68,3.83,3.83,0,0,0-.79-1.31,3.57,3.57,0,0,0-1.22-.85,3.87,3.87,0,0,0-1.55-.31A3.17,3.17,0,0,0,365.25,451.85Z"/><path class="cls-2" d="M387.79,444v16.4h-1.87v-1.94a5.68,5.68,0,0,1-1.81,1.7,4.63,4.63,0,0,1-2.25.52,5.26,5.26,0,0,1-2.15-.43,5,5,0,0,1-1.68-1.22,5.62,5.62,0,0,1-1.11-1.86,7.28,7.28,0,0,1,0-4.76,5.87,5.87,0,0,1,1.12-1.91,5.18,5.18,0,0,1,1.68-1.25,5,5,0,0,1,2.13-.45,5,5,0,0,1,2.24.48,5.43,5.43,0,0,1,1.82,1.51V444Zm-7.06,6.78a3.62,3.62,0,0,0-1.19.89,3.88,3.88,0,0,0-.77,1.38,5.57,5.57,0,0,0-.27,1.77,5.15,5.15,0,0,0,.27,1.71,4.18,4.18,0,0,0,.75,1.34,3.31,3.31,0,0,0,1.14.87,3.47,3.47,0,0,0,1.48.31,3.6,3.6,0,0,0,1.51-.32,3.51,3.51,0,0,0,1.2-.9,4.24,4.24,0,0,0,.79-1.35,5,5,0,0,0,.28-1.71,5.35,5.35,0,0,0-.27-1.75,4.3,4.3,0,0,0-.75-1.36,3.2,3.2,0,0,0-1.16-.89,3.78,3.78,0,0,0-3,0Z"/><path class="cls-2" d="M392.87,456.52a3.62,3.62,0,0,0,.5.91,3.81,3.81,0,0,0,1.34,1.16,3.72,3.72,0,0,0,1.71.39,3.91,3.91,0,0,0,2-.53,3.66,3.66,0,0,0,1.41-1.41l1.65.61a5.34,5.34,0,0,1-2.07,2.24,5.67,5.67,0,0,1-3,.81,6,6,0,0,1-2.32-.44,5.46,5.46,0,0,1-1.83-1.22,5.52,5.52,0,0,1-1.19-1.86,6.4,6.4,0,0,1-.43-2.38,6.5,6.5,0,0,1,.43-2.4,5.86,5.86,0,0,1,1.18-1.89,5.21,5.21,0,0,1,1.79-1.24,6.16,6.16,0,0,1,4.58,0,5.64,5.64,0,0,1,1.83,1.22,5.48,5.48,0,0,1,1.2,1.83,6.08,6.08,0,0,1,.43,2.31V455a3.31,3.31,0,0,1,0,.41h-9.44A5,5,0,0,0,392.87,456.52Zm7-3.63a3.37,3.37,0,0,0-.44-.85,3.91,3.91,0,0,0-1.36-1.13,3.84,3.84,0,0,0-1.76-.42,3.76,3.76,0,0,0-1.75.42,3.42,3.42,0,0,0-1.3,1.16,3.26,3.26,0,0,0-.39.82,10,10,0,0,0-.25,1.09h7.45A4.44,4.44,0,0,0,399.91,452.9Z"/><path class="cls-2" d="M406.67,451a6.06,6.06,0,0,1,.48-.92,2.59,2.59,0,0,1,.55-.58,3.42,3.42,0,0,1,2.16-.69h.44v1.89l-.28,0h-.23a2.81,2.81,0,0,0-2.46,1.3,3.52,3.52,0,0,0-.52,1.12,6.56,6.56,0,0,0-.15,1.56v5.75H404.8V449.1h1.87Z"/><path class="cls-2" d="M418,452.07a1.52,1.52,0,0,0-.59-1.25,2.47,2.47,0,0,0-1.57-.47,2.31,2.31,0,0,0-1.49.44,1.43,1.43,0,0,0-.55,1.18,1.68,1.68,0,0,0,.11.64,1.14,1.14,0,0,0,.39.48,3.2,3.2,0,0,0,.77.39q.49.18,1.25.41a10.23,10.23,0,0,1,1.72.59,3.72,3.72,0,0,1,1,.71,3.12,3.12,0,0,1,.66,1,3.07,3.07,0,0,1,.25,1.22,3,3,0,0,1-.3,1.34,3.18,3.18,0,0,1-.82,1,3.68,3.68,0,0,1-1.27.68,5.44,5.44,0,0,1-1.65.23q-3.93,0-4.23-3.49h1.84q.2,2,2.38,2a2.42,2.42,0,0,0,1.54-.46,1.47,1.47,0,0,0,.58-1.22,1.39,1.39,0,0,0-.57-1.17,6,6,0,0,0-2-.8,6.3,6.3,0,0,1-2.7-1.3,2.77,2.77,0,0,1-.86-2.11,3,3,0,0,1,1.09-2.38,4.37,4.37,0,0,1,2.89-.91,4.28,4.28,0,0,1,2.85.87,3.29,3.29,0,0,1,1.11,2.49H418Z"/><path class="cls-2" d="M426.27,449.27a3.72,3.72,0,0,1,1.83-.44,4.07,4.07,0,0,1,1.45.27,3.14,3.14,0,0,1,1.18.76,2.72,2.72,0,0,1,.68,1.16,6.34,6.34,0,0,1,.21,1.79v7.62h-1.87v-7.52a2.64,2.64,0,0,0-.54-1.79,2,2,0,0,0-1.57-.61,2.82,2.82,0,0,0-2.21,1,2.94,2.94,0,0,0-.58,1,4.35,4.35,0,0,0-.16,1.3v6.64h-1.87V444h1.87v6.64A5.68,5.68,0,0,1,426.27,449.27Z"/><path class="cls-2" d="M437.13,445.06a1.21,1.21,0,0,1,.34.87,1.12,1.12,0,0,1-.36.84,1.21,1.21,0,1,1-.85-2.06A1.15,1.15,0,0,1,437.13,445.06Zm-1.82,15.38V449.1h1.87v11.33Z"/><path class="cls-2" d="M442.8,451.17a5.33,5.33,0,0,1,1.76-1.79,4.73,4.73,0,0,1,2.37-.54,5.33,5.33,0,0,1,2.16.43,4.87,4.87,0,0,1,1.68,1.2,5.56,5.56,0,0,1,1.09,1.86,6.85,6.85,0,0,1,.39,2.36,7.33,7.33,0,0,1-.39,2.45,5.64,5.64,0,0,1-1.09,1.91,4.94,4.94,0,0,1-1.68,1.23,5.2,5.2,0,0,1-2.16.44,5.47,5.47,0,0,1-2.48-.59,4.6,4.6,0,0,1-.85-.55,6,6,0,0,1-.8-.9v7.08h-1.87V449.1h1.87Zm2.25-.34a3.34,3.34,0,0,0-1.19.91,4.43,4.43,0,0,0-.77,1.41,5.53,5.53,0,0,0-.28,1.81,5,5,0,0,0,.27,1.7,3.8,3.8,0,0,0,.76,1.3,3.36,3.36,0,0,0,1.18.84,3.81,3.81,0,0,0,1.52.3,3.69,3.69,0,0,0,1.52-.31,3.3,3.3,0,0,0,1.18-.88,4.16,4.16,0,0,0,.76-1.38,5.46,5.46,0,0,0,.27-1.76,4.41,4.41,0,0,0-1-3.07,3.31,3.31,0,0,0-1.2-.87,3.69,3.69,0,0,0-1.47-.31A3.73,3.73,0,0,0,445.05,450.82Z"/><path class="cls-2" d="M453.15,463.92l2.07-6,1.77.57-2.48,5.83Z"/><path class="cls-2" d="M467.93,460.43V444h4.38a6.87,6.87,0,0,1,4.47,1.28,4.57,4.57,0,0,1,1.55,3.74,5.55,5.55,0,0,1-.46,2.26,4.59,4.59,0,0,1-1.29,1.72,4.87,4.87,0,0,1-1.7.85,8.63,8.63,0,0,1-2.36.28H470v6.27Zm5.35-8.1a3.51,3.51,0,0,0,.9-.23,3.25,3.25,0,0,0,1.51-4.84,3,3,0,0,0-1.54-1.13,5.26,5.26,0,0,0-1-.25,9.32,9.32,0,0,0-1.27-.07H470v6.59h2.14A9.19,9.19,0,0,0,473.27,452.33Z"/><path class="cls-2" d="M490.84,449.1v11.33H489v-2.19a6.07,6.07,0,0,1-1.84,1.87,4.35,4.35,0,0,1-2.29.59,5.12,5.12,0,0,1-2.15-.44A5.18,5.18,0,0,1,481,459a5.46,5.46,0,0,1-1.11-1.86,7,7,0,0,1-.39-2.38,6.83,6.83,0,0,1,.41-2.4,5.85,5.85,0,0,1,1.12-1.89,5,5,0,0,1,1.7-1.24,5.21,5.21,0,0,1,2.16-.44,4.78,4.78,0,0,1,2.27.52A5.63,5.63,0,0,1,489,451V449.1Zm-8.43,2.75a4.87,4.87,0,0,0-.69,1.39,5.29,5.29,0,0,0-.25,1.61,4.88,4.88,0,0,0,.28,1.68,4.38,4.38,0,0,0,.76,1.34,3.44,3.44,0,0,0,1.14.89,3.3,3.3,0,0,0,1.45.32,3.37,3.37,0,0,0,1.51-.34,3.92,3.92,0,0,0,1.23-.95,4.6,4.6,0,0,0,.84-1.41,4.81,4.81,0,0,0,.31-1.72,4.86,4.86,0,0,0-.28-1.68,3.83,3.83,0,0,0-.79-1.31,3.58,3.58,0,0,0-1.22-.85,3.87,3.87,0,0,0-1.55-.31A3.17,3.17,0,0,0,482.41,451.85Z"/><path class="cls-2" d="M496.47,451a6.15,6.15,0,0,1,.48-.92,2.63,2.63,0,0,1,.55-.58,3.42,3.42,0,0,1,2.16-.69h.44v1.89l-.28,0h-.23a2.81,2.81,0,0,0-2.46,1.3,3.55,3.55,0,0,0-.52,1.12,6.56,6.56,0,0,0-.15,1.56v5.75H494.6V449.1h1.87Z"/><path class="cls-2" d="M505.11,458.68a1.21,1.21,0,0,0,.68.14h.86v1.62H504.9a2,2,0,0,1-1.41-.42,1.82,1.82,0,0,1-.43-1.35v-7.92h-1.57V449.1h1.57v-3.56h1.87v3.56h1.72v1.65h-1.72v7.38A.66.66,0,0,0,505.11,458.68Z"/><path class="cls-2" d="M511.09,450.7a4.87,4.87,0,0,1,1.52-1.44,3.78,3.78,0,0,1,1.84-.43,4.24,4.24,0,0,1,1.46.25,3.52,3.52,0,0,1,1.17.69,2.75,2.75,0,0,1,.75,1.19,6.44,6.44,0,0,1,.21,1.83v7.65h-1.87v-7.23a5.79,5.79,0,0,0-.1-1.2,1.9,1.9,0,0,0-.32-.74,1.68,1.68,0,0,0-.73-.55,2.59,2.59,0,0,0-1-.21,3,3,0,0,0-1.19.23,3.21,3.21,0,0,0-1.55,1.62,3.57,3.57,0,0,0-.16,1.17v6.91h-1.87V449.1h1.87Z"/><path class="cls-2" d="M523.05,456.52a3.65,3.65,0,0,0,.5.91,3.83,3.83,0,0,0,1.34,1.16,3.72,3.72,0,0,0,1.71.39,3.91,3.91,0,0,0,2-.53A3.66,3.66,0,0,0,530,457l1.65.61a5.35,5.35,0,0,1-2.06,2.24,5.68,5.68,0,0,1-3,.81,6,6,0,0,1-2.32-.44,5.36,5.36,0,0,1-3-3.07,6.4,6.4,0,0,1-.43-2.38,6.5,6.5,0,0,1,.43-2.4,5.86,5.86,0,0,1,1.18-1.89,5.21,5.21,0,0,1,1.79-1.24,6.16,6.16,0,0,1,4.58,0,5.65,5.65,0,0,1,1.83,1.22,5.48,5.48,0,0,1,1.2,1.83,6.06,6.06,0,0,1,.43,2.31V455a3.22,3.22,0,0,1,0,.41h-9.44A5,5,0,0,0,523.05,456.52Zm7-3.63a3.42,3.42,0,0,0-.44-.85,3.92,3.92,0,0,0-1.36-1.13,3.84,3.84,0,0,0-1.76-.42,3.76,3.76,0,0,0-1.75.42,3.42,3.42,0,0,0-1.3,1.16,3.22,3.22,0,0,0-.39.82,10,10,0,0,0-.25,1.09h7.45A4.48,4.48,0,0,0,530.09,452.9Z"/><path class="cls-2" d="M536.85,451a6.15,6.15,0,0,1,.48-.92,2.63,2.63,0,0,1,.55-.58,3.42,3.42,0,0,1,2.16-.69h.44v1.89l-.28,0H540a2.81,2.81,0,0,0-2.46,1.3,3.55,3.55,0,0,0-.52,1.12,6.56,6.56,0,0,0-.15,1.56v5.75H535V449.1h1.87Z"/><path class="cls-2" d="M548.14,452.07a1.52,1.52,0,0,0-.59-1.25,2.47,2.47,0,0,0-1.57-.47,2.32,2.32,0,0,0-1.49.44,1.44,1.44,0,0,0-.55,1.18,1.69,1.69,0,0,0,.11.64,1.14,1.14,0,0,0,.39.48,3.22,3.22,0,0,0,.78.39q.49.18,1.25.41a10.25,10.25,0,0,1,1.72.59,3.73,3.73,0,0,1,1,.71,3.14,3.14,0,0,1,.66,1,3.09,3.09,0,0,1,.25,1.22,3,3,0,0,1-.29,1.34,3.19,3.19,0,0,1-.82,1,3.68,3.68,0,0,1-1.27.68,5.44,5.44,0,0,1-1.65.23q-3.93,0-4.23-3.49h1.84q.2,2,2.38,2a2.41,2.41,0,0,0,1.54-.46,1.47,1.47,0,0,0,.58-1.22,1.39,1.39,0,0,0-.57-1.17,6,6,0,0,0-2-.8,6.29,6.29,0,0,1-2.7-1.3,2.77,2.77,0,0,1-.86-2.11,3,3,0,0,1,1.09-2.38,4.37,4.37,0,0,1,2.89-.91,4.28,4.28,0,0,1,2.85.87A3.3,3.3,0,0,1,550,452.2h-1.87Z"/><path class="cls-2" d="M556.46,449.27a3.72,3.72,0,0,1,1.83-.44,4.06,4.06,0,0,1,1.45.27,3.14,3.14,0,0,1,1.18.76,2.72,2.72,0,0,1,.68,1.16,6.3,6.3,0,0,1,.21,1.79v7.62h-1.87v-7.52a2.64,2.64,0,0,0-.54-1.79,2,2,0,0,0-1.57-.61,2.82,2.82,0,0,0-2.21,1,2.93,2.93,0,0,0-.58,1,4.33,4.33,0,0,0-.16,1.3v6.64H553V444h1.87v6.64A5.68,5.68,0,0,1,556.46,449.27Z"/><path class="cls-2" d="M567.31,445.06a1.21,1.21,0,0,1,.34.87,1.12,1.12,0,0,1-.36.84,1.21,1.21,0,1,1-.85-2.06A1.15,1.15,0,0,1,567.31,445.06Zm-1.82,15.38V449.1h1.87v11.33Z"/><path class="cls-2" d="M573,451.17a5.35,5.35,0,0,1,1.76-1.79,4.73,4.73,0,0,1,2.37-.54,5.33,5.33,0,0,1,2.16.43,4.88,4.88,0,0,1,1.68,1.2,5.56,5.56,0,0,1,1.09,1.86,6.87,6.87,0,0,1,.39,2.36,7.35,7.35,0,0,1-.39,2.45A5.64,5.64,0,0,1,581,459a5,5,0,0,1-1.68,1.23,5.2,5.2,0,0,1-2.16.44,5.47,5.47,0,0,1-2.48-.59,4.62,4.62,0,0,1-.85-.55,6,6,0,0,1-.8-.9v7.08h-1.87V449.1H573Zm2.25-.34a3.33,3.33,0,0,0-1.19.91,4.45,4.45,0,0,0-.78,1.41A5.54,5.54,0,0,0,573,455a5.06,5.06,0,0,0,.27,1.7A3.8,3.8,0,0,0,574,458a3.37,3.37,0,0,0,1.18.84,3.82,3.82,0,0,0,1.52.3,3.7,3.7,0,0,0,1.52-.31,3.29,3.29,0,0,0,1.18-.88,4.15,4.15,0,0,0,.76-1.38,5.44,5.44,0,0,0,.27-1.76,4.41,4.41,0,0,0-1-3.07,3.32,3.32,0,0,0-1.21-.87,3.69,3.69,0,0,0-1.48-.31A3.73,3.73,0,0,0,575.24,450.82Z"/><path class="cls-2" d="M583.34,463.92l2.06-6,1.77.57-2.48,5.83Z"/><path class="cls-2" d="M598.11,460.43V444h2.06v16.4Z"/><path class="cls-2" d="M606,450.7a4.87,4.87,0,0,1,1.52-1.44,3.78,3.78,0,0,1,1.84-.43,4.24,4.24,0,0,1,1.46.25,3.52,3.52,0,0,1,1.17.69,2.75,2.75,0,0,1,.75,1.19,6.44,6.44,0,0,1,.21,1.83v7.65H611v-7.23a5.79,5.79,0,0,0-.1-1.2,1.9,1.9,0,0,0-.32-.74,1.68,1.68,0,0,0-.73-.55,2.59,2.59,0,0,0-1-.21,3,3,0,0,0-1.19.23,3.21,3.21,0,0,0-1.55,1.62,3.57,3.57,0,0,0-.16,1.17v6.91h-1.87V449.1H606Z"/><path class="cls-2" d="M618.46,450.7a4.87,4.87,0,0,1,1.52-1.44,3.78,3.78,0,0,1,1.84-.43,4.24,4.24,0,0,1,1.46.25,3.52,3.52,0,0,1,1.17.69,2.75,2.75,0,0,1,.75,1.19,6.44,6.44,0,0,1,.21,1.83v7.65h-1.87v-7.23a5.79,5.79,0,0,0-.1-1.2,1.9,1.9,0,0,0-.32-.74,1.68,1.68,0,0,0-.73-.55,2.59,2.59,0,0,0-1-.21,3,3,0,0,0-1.19.23,3.21,3.21,0,0,0-1.55,1.62,3.57,3.57,0,0,0-.16,1.17v6.91h-1.87V449.1h1.87Z"/><path class="cls-2" d="M636.31,449.27a5.19,5.19,0,0,1,1.81,1.24,5.86,5.86,0,0,1,1.18,1.89,6.5,6.5,0,0,1,.43,2.4,5.88,5.88,0,0,1-.46,2.32A6.08,6.08,0,0,1,638,459a5.58,5.58,0,0,1-1.84,1.25,5.75,5.75,0,0,1-2.27.46,5.91,5.91,0,0,1-2.31-.44A5.41,5.41,0,0,1,629.8,459a5.47,5.47,0,0,1-1.18-1.88,7.11,7.11,0,0,1,0-4.81,5.34,5.34,0,0,1,3-3.08,6.2,6.2,0,0,1,2.36-.43A5.93,5.93,0,0,1,636.31,449.27Zm-5.14,2.43a5,5,0,0,0,0,6.12A3.61,3.61,0,0,0,634,459a3.79,3.79,0,0,0,1.54-.31,3.58,3.58,0,0,0,1.22-.87,4,4,0,0,0,.8-1.33,4.85,4.85,0,0,0,.28-1.7,5.22,5.22,0,0,0-.27-1.73,3.81,3.81,0,0,0-.77-1.33,3.53,3.53,0,0,0-1.2-.86,3.85,3.85,0,0,0-1.56-.31A3.64,3.64,0,0,0,631.17,451.71Z"/><path class="cls-2" d="M646.68,460.43h-2l-4.15-11.33h2l3.2,8.65L649,449.1H651Z"/><path class="cls-2" d="M663.1,449.1v11.33h-1.87v-2.19a6.07,6.07,0,0,1-1.84,1.87,4.35,4.35,0,0,1-2.29.59,5.12,5.12,0,0,1-2.15-.44,5.18,5.18,0,0,1-1.68-1.22,5.46,5.46,0,0,1-1.11-1.86,7,7,0,0,1-.39-2.38,6.83,6.83,0,0,1,.41-2.4,5.85,5.85,0,0,1,1.12-1.89,5,5,0,0,1,1.7-1.24,5.21,5.21,0,0,1,2.16-.44,4.78,4.78,0,0,1,2.27.52,5.63,5.63,0,0,1,1.81,1.62V449.1Zm-8.43,2.75a4.87,4.87,0,0,0-.69,1.39,5.29,5.29,0,0,0-.25,1.61,4.88,4.88,0,0,0,.28,1.68,4.38,4.38,0,0,0,.76,1.34,3.44,3.44,0,0,0,1.14.89,3.3,3.3,0,0,0,1.45.32,3.37,3.37,0,0,0,1.51-.34,3.92,3.92,0,0,0,1.23-.95,4.6,4.6,0,0,0,.84-1.41,4.81,4.81,0,0,0,.31-1.72A4.86,4.86,0,0,0,661,453a3.83,3.83,0,0,0-.79-1.31,3.58,3.58,0,0,0-1.22-.85,3.87,3.87,0,0,0-1.55-.31A3.17,3.17,0,0,0,654.67,451.85Z"/><path class="cls-2" d="M669,458.68a1.21,1.21,0,0,0,.68.14h.86v1.62h-1.75a2,2,0,0,1-1.41-.42,1.82,1.82,0,0,1-.43-1.35v-7.92h-1.57V449.1h1.57v-3.56h1.87v3.56h1.72v1.65h-1.72v7.38A.66.66,0,0,0,669,458.68Z"/><path class="cls-2" d="M674.85,445.06a1.21,1.21,0,0,1,.34.87,1.12,1.12,0,0,1-.36.84,1.21,1.21,0,1,1-.85-2.06A1.15,1.15,0,0,1,674.85,445.06ZM673,460.43V449.1h1.87v11.33Z"/><path class="cls-2" d="M685.87,449.27a5.19,5.19,0,0,1,1.81,1.24,5.86,5.86,0,0,1,1.18,1.89,6.5,6.5,0,0,1,.43,2.4,5.88,5.88,0,0,1-.46,2.32A6.08,6.08,0,0,1,687.6,459a5.58,5.58,0,0,1-1.84,1.25,5.75,5.75,0,0,1-2.27.46,5.91,5.91,0,0,1-2.31-.44,5.41,5.41,0,0,1-1.82-1.23,5.47,5.47,0,0,1-1.18-1.88,7.11,7.11,0,0,1,0-4.81,5.34,5.34,0,0,1,3-3.08,6.2,6.2,0,0,1,2.36-.43A5.93,5.93,0,0,1,685.87,449.27Zm-5.14,2.43a5,5,0,0,0,0,6.12,3.62,3.62,0,0,0,2.8,1.16,3.79,3.79,0,0,0,1.54-.31,3.58,3.58,0,0,0,1.22-.87,4,4,0,0,0,.8-1.33,4.85,4.85,0,0,0,.28-1.7,5.24,5.24,0,0,0-.27-1.73,3.81,3.81,0,0,0-.77-1.33,3.53,3.53,0,0,0-1.2-.86,3.85,3.85,0,0,0-1.56-.31A3.65,3.65,0,0,0,680.73,451.71Z"/><path class="cls-2" d="M694,450.7a4.87,4.87,0,0,1,1.52-1.44,3.78,3.78,0,0,1,1.84-.43,4.24,4.24,0,0,1,1.46.25,3.52,3.52,0,0,1,1.17.69,2.75,2.75,0,0,1,.75,1.19,6.44,6.44,0,0,1,.21,1.83v7.65h-1.87v-7.23a5.79,5.79,0,0,0-.1-1.2,1.9,1.9,0,0,0-.32-.74,1.68,1.68,0,0,0-.73-.55,2.59,2.59,0,0,0-1-.21,3,3,0,0,0-1.19.23,3.21,3.21,0,0,0-1.55,1.62,3.57,3.57,0,0,0-.16,1.17v6.91h-1.87V449.1H694Z"/><path class="cls-2" d="M703,463.92l2.06-6,1.77.57-2.48,5.83Z"/><path class="cls-2" d="M717.77,460.43V444h4.47a6.15,6.15,0,0,1,4.12,1.27,4.35,4.35,0,0,1,1.49,3.5,4.88,4.88,0,0,1-.6,2.46,4.28,4.28,0,0,1-1.76,1.67,4.88,4.88,0,0,1-1.24.47,12,12,0,0,1-1.78.22l6.37,6.81h-2.63l-6.37-6.88v6.88Zm7-9.11a2.92,2.92,0,0,0,1-2.37,3,3,0,0,0-.9-2.35,3.78,3.78,0,0,0-2.59-.8h-2.41v6.34h2.06A4.34,4.34,0,0,0,724.75,451.32Z"/><path class="cls-2" d="M733.19,445.06a1.21,1.21,0,0,1,.34.87,1.12,1.12,0,0,1-.36.84,1.21,1.21,0,1,1-.85-2.06A1.15,1.15,0,0,1,733.19,445.06Zm-1.82,15.38V449.1h1.87v11.33Z"/><path class="cls-2" d="M747.17,449.1v11.41a7.23,7.23,0,0,1-.36,2.42,4.38,4.38,0,0,1-1.14,1.73,5.75,5.75,0,0,1-4.18,1.5,6.38,6.38,0,0,1-5-2.06l1.28-1.28c.26.28.47.48.61.61a5.33,5.33,0,0,0,.47.37,4.56,4.56,0,0,0,1.22.48,5.84,5.84,0,0,0,1.44.18,4.73,4.73,0,0,0,1.67-.3,3.35,3.35,0,0,0,1.28-.81,3.85,3.85,0,0,0,.86-2.7v-2.38a5.8,5.8,0,0,1-1.84,1.84,4.53,4.53,0,0,1-2.34.59,4.9,4.9,0,0,1-3.75-1.68,5.84,5.84,0,0,1-1.09-1.88,6.78,6.78,0,0,1-.39-2.34,7.27,7.27,0,0,1,.47-2.61,5.38,5.38,0,0,1,1.33-2,4.9,4.9,0,0,1,3.59-1.33,4.56,4.56,0,0,1,2.24.52,5.77,5.77,0,0,1,1.79,1.7V449.1Zm-7.08,1.76a3.55,3.55,0,0,0-1.19.86,3.81,3.81,0,0,0-.78,1.33,5.08,5.08,0,0,0-.27,1.68,4.86,4.86,0,0,0,.28,1.68,4.36,4.36,0,0,0,.77,1.35,3.5,3.5,0,0,0,4.22.85,4.24,4.24,0,0,0,1.32-1,3.06,3.06,0,0,0,.59-1.18,5.79,5.79,0,0,0,.22-1.62,6.44,6.44,0,0,0-.2-1.77,3.29,3.29,0,0,0-.69-1.23,3.91,3.91,0,0,0-1.25-.91,3.5,3.5,0,0,0-1.5-.34A3.7,3.7,0,0,0,740.09,450.86Z"/><path class="cls-2" d="M758,449.27a5.19,5.19,0,0,1,1.81,1.24,5.86,5.86,0,0,1,1.18,1.89,6.5,6.5,0,0,1,.43,2.4,5.88,5.88,0,0,1-.46,2.32,6.08,6.08,0,0,1-1.23,1.87,5.58,5.58,0,0,1-1.84,1.25,5.75,5.75,0,0,1-2.27.46,5.91,5.91,0,0,1-2.31-.44,5.41,5.41,0,0,1-1.82-1.23,5.47,5.47,0,0,1-1.18-1.88,7.11,7.11,0,0,1,0-4.81,5.34,5.34,0,0,1,3-3.08,6.2,6.2,0,0,1,2.36-.43A5.93,5.93,0,0,1,758,449.27Zm-5.14,2.43a5,5,0,0,0,0,6.12,3.61,3.61,0,0,0,2.8,1.16,3.79,3.79,0,0,0,1.54-.31,3.58,3.58,0,0,0,1.22-.87,4,4,0,0,0,.8-1.33,4.85,4.85,0,0,0,.28-1.7,5.22,5.22,0,0,0-.27-1.73,3.81,3.81,0,0,0-.77-1.33,3.53,3.53,0,0,0-1.2-.86,3.85,3.85,0,0,0-1.56-.31A3.64,3.64,0,0,0,752.9,451.71Z"/><path class="cls-2" d="M766.17,451a6.15,6.15,0,0,1,.48-.92,2.63,2.63,0,0,1,.55-.58,3.42,3.42,0,0,1,2.16-.69h.44v1.89l-.28,0h-.23a2.81,2.81,0,0,0-2.46,1.3,3.55,3.55,0,0,0-.52,1.12,6.56,6.56,0,0,0-.15,1.56v5.75h-1.87V449.1h1.87Z"/></svg>